<svg xmlns="http://www.w3.org/2000/svg" width="1150" height="600" viewBox="0 0 1150 600">
<style> text { font-family: sans-serif; fill: black; } path, line, rect { stroke: black; } </style>
<rect width="100%" height="100%" fill="white"/>
<g transform="translate(100, 100) rotate(0.0)">
  <g class="symbol">
        <circle cx="0" cy="0" r="15" fill="none" stroke="currentColor" stroke-width="2"/>
        <path d="M -8 0 Q -4 -8 0 0 T 8 0" fill="none" stroke="currentColor" stroke-width="2"/>
        <line x1="-20" y1="0" x2="-15" y2="0" stroke="currentColor" stroke-width="2"/>
        <line x1="15" y1="0" x2="20" y2="0" stroke="currentColor" stroke-width="2"/>
    </g>
  <text x="0" y="-25" text-anchor="middle" font-size="12" >V1</text>
  <text x="0" y="30" text-anchor="middle" font-size="10" fill="gray" >220V</text>
</g>
<g transform="translate(250, 100) rotate(0.0)">
  <g class="symbol">
        <line x1="-20" y1="0" x2="-10" y2="0" stroke="currentColor" stroke-width="2"/>
        <line x1="10" y1="0" x2="20" y2="0" stroke="currentColor" stroke-width="2"/>
        <circle cx="-10" cy="0" r="2" fill="none" stroke="currentColor" stroke-width="2"/>
        <circle cx="10" cy="0" r="2" fill="none" stroke="currentColor" stroke-width="2"/>
        <line x1="-10" y1="0" x2="8" y2="-10" stroke="currentColor" stroke-width="2"/>
    </g>
  <text x="0" y="-25" text-anchor="middle" font-size="12" >S1</text>
  <text x="0" y="30" text-anchor="middle" font-size="10" fill="gray" >spst</text>
</g>
<g transform="translate(400, 100) rotate(0.0)">
  <g class="symbol">
        <polygon points="-10,-10 -10,10 10,0" fill="none" stroke="currentColor" stroke-width="2"/>
        <line x1="10" y1="-10" x2="10" y2="10" stroke="currentColor" stroke-width="2"/>
        <line x1="-20" y1="0" x2="-10" y2="0" stroke="currentColor" stroke-width="2"/>
        <line x1="10" y1="0" x2="20" y2="0" stroke="currentColor" stroke-width="2"/>
    </g>
  <text x="0" y="-25" text-anchor="middle" font-size="12" >D1</text>
  <text x="0" y="30" text-anchor="middle" font-size="10" fill="gray" >1N4007</text>
</g>
<g transform="translate(550, 100) rotate(0.0)">
  <g class="symbol">
        <polygon points="-10,-10 -10,10 10,0" fill="none" stroke="currentColor" stroke-width="2"/>
        <line x1="10" y1="-10" x2="10" y2="10" stroke="currentColor" stroke-width="2"/>
        <line x1="-20" y1="0" x2="-10" y2="0" stroke="currentColor" stroke-width="2"/>
        <line x1="10" y1="0" x2="20" y2="0" stroke="currentColor" stroke-width="2"/>
        <line x1="-5" y1="-12" x2="5" y2="-22" stroke="currentColor" stroke-width="1"/>
        <polygon points="5,-22 2,-18 0,-21" fill="currentColor"/>
        <line x1="0" y1="-12" x2="10" y2="-22" stroke="currentColor" stroke-width="1"/>
        <polygon points="10,-22 7,-18 5,-21" fill="currentColor"/>
    </g>
  <text x="0" y="-35" text-anchor="middle" font-size="12" >L1</text>
  <text x="0" y="20" text-anchor="middle" font-size="10" fill="gray" >red</text>
</g>
<g transform="translate(700, 100) rotate(0.0)">
  <g class="symbol"><rect x="-20" y="-8" width="40" height="16" fill="none" stroke="currentColor" stroke-width="2"/></g>
  <text x="0" y="-25" text-anchor="middle" font-size="12" >R1</text>
  <text x="0" y="30" text-anchor="middle" font-size="10" fill="gray" >330R</text>
</g>
<g transform="translate(850, 100) rotate(0.0)">
  <g class="symbol">
        <circle cx="0" cy="0" r="15" fill="none" stroke="currentColor" stroke-width="2"/>
        <line x1="-10" y1="0" x2="10" y2="0" stroke="currentColor" stroke-width="2"/>
        <polygon points="10,0 4,-4 4,4" fill="currentColor"/>
        <line x1="-20" y1="0" x2="-15" y2="0" stroke="currentColor" stroke-width="2"/>
        <line x1="15" y1="0" x2="20" y2="0" stroke="currentColor" stroke-width="2"/>
    </g>
  <text x="0" y="-25" text-anchor="middle" font-size="12" >I1</text>
  <text x="0" y="30" text-anchor="middle" font-size="10" fill="gray" >1A</text>
</g>
<g transform="translate(1000, 160) rotate(0.0)">
  <g class="symbol">
        <line x1="-15" y1="0" x2="15" y2="0" stroke="currentColor" stroke-width="2"/>
        <line x1="0" y1="-10" x2="0" y2="0" stroke="currentColor" stroke-width="2"/>
    </g>
  <text x="0" y="25" text-anchor="middle" font-size="12" >GND</text>
  <text x="0" y="80" text-anchor="middle" font-size="10" fill="gray" ></text>
</g>
<path d="M 120 100 L 230 100 L 230 100" stroke="blue" stroke-width="1" fill="none"/>
<path d="M 270 100 L 380 100 L 380 100" stroke="blue" stroke-width="1" fill="none"/>
<path d="M 420 100 L 530 100 L 530 100" stroke="blue" stroke-width="1" fill="none"/>
<path d="M 570 100 L 680 100 L 680 100" stroke="blue" stroke-width="1" fill="none"/>
<path d="M 720 100 L 830 100 L 830 100" stroke="blue" stroke-width="1" fill="none"/>
<path d="M 870 100 L 1000 100 L 1000 150" stroke="blue" stroke-width="1" fill="none"/>
</svg>