<svg xmlns="http://www.w3.org/2000/svg" width="700" height="600" viewBox="0 0 700 600">
<style> text { font-family: sans-serif; fill: black; } path, line, rect { stroke: black; } </style>
<rect width="100%" height="100%" fill="white"/>
<g transform="translate(100, 100) rotate(0.0)">
  <g class="symbol">
        <line x1="-5" y1="-10" x2="-5" y2="10" stroke="currentColor" stroke-width="2"/>
        <line x1="5" y1="-5" x2="5" y2="5" stroke="currentColor" stroke-width="4"/>
        <line x1="-20" y1="0" x2="-5" y2="0" stroke="currentColor" stroke-width="2"/>
        <line x1="5" y1="0" x2="20" y2="0" stroke="currentColor" stroke-width="2"/>
        <text x="-10" y="-15" font-size="10" fill="currentColor">+</text>
    </g>
  <text x="0" y="-25" text-anchor="middle" font-size="12" >Vin</text>
  <text x="0" y="30" text-anchor="middle" font-size="10" fill="gray" >12V</text>
</g>
<g transform="translate(250, 100) rotate(0.0)">
  <g class="symbol"><rect x="-20" y="-8" width="40" height="16" fill="none" stroke="currentColor" stroke-width="2"/></g>
  <text x="0" y="-25" text-anchor="middle" font-size="12" >R1</text>
  <text x="0" y="30" text-anchor="middle" font-size="10" fill="gray" >1k</text>
</g>
<g transform="translate(400, 100) rotate(0.0)">
  <g class="symbol">
        <line x1="-5" y1="-15" x2="-5" y2="15" stroke="currentColor" stroke-width="2"/>
        <line x1="5" y1="-15" x2="5" y2="15" stroke="currentColor" stroke-width="2"/>
        <line x1="-20" y1="0" x2="-5" y2="0" stroke="currentColor" stroke-width="2"/>
        <line x1="5" y1="0" x2="20" y2="0" stroke="currentColor" stroke-width="2"/>
    </g>
  <text x="0" y="-25" text-anchor="middle" font-size="12" >C1</text>
  <text x="0" y="30" text-anchor="middle" font-size="10" fill="gray" >470nF</text>
</g>
<g transform="translate(550, 160) rotate(0.0)">
  <g class="symbol">
        <line x1="-15" y1="0" x2="15" y2="0" stroke="currentColor" stroke-width="2"/>
        <line x1="0" y1="-10" x2="0" y2="0" stroke="currentColor" stroke-width="2"/>
    </g>
  <text x="0" y="25" text-anchor="middle" font-size="12" >GND</text>
  <text x="0" y="80" text-anchor="middle" font-size="10" fill="gray" ></text>
</g>
<path d="M 80 100 L 230 100 L 230 100" stroke="blue" stroke-width="1" fill="none"/>
<path d="M 270 100 L 380 100 L 380 100" stroke="blue" stroke-width="1" fill="none"/>
<path d="M 420 100 L 550 100 L 550 150" stroke="blue" stroke-width="1" fill="none"/>
</svg>