<svg xmlns="http://www.w3.org/2000/svg" width="550" height="600" viewBox="0 0 550 600">
<style> text { font-family: sans-serif; fill: black; } path, line, rect { stroke: black; } </style>
<rect width="100%" height="100%" fill="white"/>
<g transform="translate(100, 100) rotate(0.0)">
  <g class="symbol">
        <circle cx="0" cy="0" r="15" fill="none" stroke="currentColor" stroke-width="2"/>
        <path d="M -8 0 Q -4 -8 0 0 T 8 0" fill="none" stroke="currentColor" stroke-width="2"/>
        <line x1="-20" y1="0" x2="-15" y2="0" stroke="currentColor" stroke-width="2"/>
        <line x1="15" y1="0" x2="20" y2="0" stroke="currentColor" stroke-width="2"/>
    </g>
  <text x="0" y="-25" text-anchor="middle" font-size="12" >AC_In</text>
  <text x="0" y="30" text-anchor="middle" font-size="10" fill="gray" >24V</text>
</g>
<g transform="translate(250, 100) rotate(0.0)">
  <g class="symbol">
        <polygon points="-10,-10 -10,10 10,0" fill="none" stroke="currentColor" stroke-width="2"/>
        <line x1="10" y1="-10" x2="10" y2="10" stroke="currentColor" stroke-width="2"/>
        <line x1="-20" y1="0" x2="-10" y2="0" stroke="currentColor" stroke-width="2"/>
        <line x1="10" y1="0" x2="20" y2="0" stroke="currentColor" stroke-width="2"/>
    </g>
  <text x="0" y="-25" text-anchor="middle" font-size="12" >D1</text>
  <text x="0" y="30" text-anchor="middle" font-size="10" fill="gray" >1N4007</text>
</g>
<g transform="translate(250, 220) rotate(0.0)">
  <g class="symbol">
        <polygon points="-10,-10 -10,10 10,0" fill="none" stroke="currentColor" stroke-width="2"/>
        <line x1="10" y1="-10" x2="10" y2="10" stroke="currentColor" stroke-width="2"/>
        <line x1="-20" y1="0" x2="-10" y2="0" stroke="currentColor" stroke-width="2"/>
        <line x1="10" y1="0" x2="20" y2="0" stroke="currentColor" stroke-width="2"/>
    </g>
  <text x="0" y="-25" text-anchor="middle" font-size="12" >D2</text>
  <text x="0" y="30" text-anchor="middle" font-size="10" fill="gray" >1N4007</text>
</g>
<g transform="translate(250, 340) rotate(0.0)">
  <g class="symbol">
        <polygon points="-10,-10 -10,10 10,0" fill="none" stroke="currentColor" stroke-width="2"/>
        <line x1="10" y1="-10" x2="10" y2="10" stroke="currentColor" stroke-width="2"/>
        <line x1="-20" y1="0" x2="-10" y2="0" stroke="currentColor" stroke-width="2"/>
        <line x1="10" y1="0" x2="20" y2="0" stroke="currentColor" stroke-width="2"/>
    </g>
  <text x="0" y="-25" text-anchor="middle" font-size="12" >D3</text>
  <text x="0" y="30" text-anchor="middle" font-size="10" fill="gray" >1N4007</text>
</g>
<g transform="translate(250, 460) rotate(0.0)">
  <g class="symbol">
        <polygon points="-10,-10 -10,10 10,0" fill="none" stroke="currentColor" stroke-width="2"/>
        <line x1="10" y1="-10" x2="10" y2="10" stroke="currentColor" stroke-width="2"/>
        <line x1="-20" y1="0" x2="-10" y2="0" stroke="currentColor" stroke-width="2"/>
        <line x1="10" y1="0" x2="20" y2="0" stroke="currentColor" stroke-width="2"/>
    </g>
  <text x="0" y="-25" text-anchor="middle" font-size="12" >D4</text>
  <text x="0" y="30" text-anchor="middle" font-size="10" fill="gray" >1N4007</text>
</g>
<g transform="translate(400, 100) rotate(0.0)">
  <g class="symbol">
        <line x1="-5" y1="-15" x2="-5" y2="15" stroke="currentColor" stroke-width="2"/>
        <line x1="5" y1="-15" x2="5" y2="15" stroke="currentColor" stroke-width="2"/>
        <line x1="-20" y1="0" x2="-5" y2="0" stroke="currentColor" stroke-width="2"/>
        <line x1="5" y1="0" x2="20" y2="0" stroke="currentColor" stroke-width="2"/>
    </g>
  <text x="0" y="-25" text-anchor="middle" font-size="12" >CFilter</text>
  <text x="0" y="30" text-anchor="middle" font-size="10" fill="gray" >100uF</text>
</g>
<g transform="translate(400, 220) rotate(0.0)">
  <g class="symbol"><rect x="-20" y="-8" width="40" height="16" fill="none" stroke="currentColor" stroke-width="2"/></g>
  <text x="0" y="-25" text-anchor="middle" font-size="12" >Load</text>
  <text x="0" y="30" text-anchor="middle" font-size="10" fill="gray" >1k</text>
</g>
<g transform="translate(400, 400) rotate(0.0)">
  <g class="symbol">
        <line x1="-15" y1="0" x2="15" y2="0" stroke="currentColor" stroke-width="2"/>
        <line x1="0" y1="-10" x2="0" y2="0" stroke="currentColor" stroke-width="2"/>
    </g>
  <text x="0" y="25" text-anchor="middle" font-size="12" >GND</text>
  <text x="0" y="80" text-anchor="middle" font-size="10" fill="gray" ></text>
</g>
<path d="M 80 100 L 230 100 L 230 100" stroke="blue" stroke-width="1" fill="none"/>
<path d="M 230 100 L 230 100 L 230 220" stroke="blue" stroke-width="1" fill="none"/>
<path d="M 120 100 L 230 100 L 230 340" stroke="blue" stroke-width="1" fill="none"/>
<path d="M 230 340 L 230 340 L 230 460" stroke="blue" stroke-width="1" fill="none"/>
<path d="M 270 340 L 270 340 L 270 100" stroke="blue" stroke-width="1" fill="none"/>
<path d="M 270 100 L 380 100 L 380 220" stroke="blue" stroke-width="1" fill="none"/>
<path d="M 380 220 L 380 220 L 380 100" stroke="blue" stroke-width="1" fill="none"/>
<path d="M 420 100 L 420 100 L 420 220" stroke="blue" stroke-width="1" fill="none"/>
<path d="M 420 220 L 270 220 L 270 460" stroke="blue" stroke-width="1" fill="none"/>
<path d="M 270 460 L 270 460 L 270 220" stroke="blue" stroke-width="1" fill="none"/>
<path d="M 270 220 L 400 220 L 400 390" stroke="blue" stroke-width="1" fill="none"/>
</svg>