<svg xmlns="http://www.w3.org/2000/svg" width="850" height="600" viewBox="0 0 850 600">
<style> text { font-family: sans-serif; fill: black; } path, line, rect { stroke: black; } </style>
<rect width="100%" height="100%" fill="white"/>
<g transform="translate(100, 100) rotate(0.0)">
  <g class="symbol">
        <circle cx="0" cy="0" r="15" fill="none" stroke="currentColor" stroke-width="2"/>
        <path d="M -8 0 Q -4 -8 0 0 T 8 0" fill="none" stroke="currentColor" stroke-width="2"/>
        <line x1="-20" y1="0" x2="-15" y2="0" stroke="currentColor" stroke-width="2"/>
        <line x1="15" y1="0" x2="20" y2="0" stroke="currentColor" stroke-width="2"/>
    </g>
  <text x="0.0" y="-30.0" text-anchor="middle" font-size="12" dominant-baseline="middle" transform="rotate(-0.0, 0.0, -30.0)">Source</text>
  <text x="0.0" y="30.0" text-anchor="middle" font-size="10" fill="gray" dominant-baseline="middle" transform="rotate(-0.0, 0.0, 30.0)">12V</text>
</g>
<g transform="translate(250, 100) rotate(0.0)">
  <g class="symbol"><rect x="-20" y="-8" width="40" height="16" fill="none" stroke="currentColor" stroke-width="2"/></g>
  <text x="0.0" y="-30.0" text-anchor="middle" font-size="12" dominant-baseline="middle" transform="rotate(-0.0, 0.0, -30.0)">R1</text>
  <text x="0.0" y="30.0" text-anchor="middle" font-size="10" fill="gray" dominant-baseline="middle" transform="rotate(-0.0, 0.0, 30.0)">100R</text>
</g>
<g transform="translate(400, 100) rotate(0.0)">
  <g class="symbol">
        <path d="M -20 0 Q -15 -10 -10 0 T 0 0 T 10 0 T 20 0" fill="none" stroke="currentColor" stroke-width="2"/>
    </g>
  <text x="0.0" y="-30.0" text-anchor="middle" font-size="12" dominant-baseline="middle" transform="rotate(-0.0, 0.0, -30.0)">L1</text>
  <text x="0.0" y="30.0" text-anchor="middle" font-size="10" fill="gray" dominant-baseline="middle" transform="rotate(-0.0, 0.0, 30.0)">10mH</text>
</g>
<g transform="translate(550, 100) rotate(0.0)">
  <g class="symbol">
        <line x1="-5" y1="-15" x2="-5" y2="15" stroke="currentColor" stroke-width="2"/>
        <line x1="5" y1="-15" x2="5" y2="15" stroke="currentColor" stroke-width="2"/>
        <line x1="-20" y1="0" x2="-5" y2="0" stroke="currentColor" stroke-width="2"/>
        <line x1="5" y1="0" x2="20" y2="0" stroke="currentColor" stroke-width="2"/>
    </g>
  <text x="0.0" y="-30.0" text-anchor="middle" font-size="12" dominant-baseline="middle" transform="rotate(-0.0, 0.0, -30.0)">C1</text>
  <text x="0.0" y="30.0" text-anchor="middle" font-size="10" fill="gray" dominant-baseline="middle" transform="rotate(-0.0, 0.0, 30.0)">10uF</text>
</g>
<g transform="translate(700, 160) rotate(0.0)">
  <g class="symbol">
        <line x1="-15" y1="0" x2="15" y2="0" stroke="currentColor" stroke-width="2"/>
        <line x1="0" y1="-10" x2="0" y2="0" stroke="currentColor" stroke-width="2"/>
    </g>
  <text x="-30.0" y="-15.0" text-anchor="middle" font-size="12" dominant-baseline="middle" transform="rotate(-0.0, -30.0, -15.0)">GND</text>
  <text x="30.0" y="0.0" text-anchor="middle" font-size="10" fill="gray" dominant-baseline="middle" transform="rotate(-0.0, 30.0, 0.0)"></text>
</g>
<path d="M 120 100 L 230 100 L 230 100" stroke="blue" stroke-width="1" fill="none"/>
<path d="M 270 100 L 380 100 L 380 100" stroke="blue" stroke-width="1" fill="none"/>
<path d="M 420 100 L 530 100 L 530 100" stroke="blue" stroke-width="1" fill="none"/>
<path d="M 570 100 L 700 100 L 700 150" stroke="blue" stroke-width="1" fill="none"/>
</svg>