<svg xmlns="http://www.w3.org/2000/svg" width="600" height="580" viewBox="0 0 600 580">
<style> text { font-family: sans-serif; fill: black; } path, line, rect { stroke: black; } </style>
<rect width="100%" height="100%" fill="white"/>
<g transform="translate(100, 100) rotate(90.0)">
  <g class="symbol">
        <line x1="-5" y1="-10" x2="-5" y2="10" stroke="currentColor" stroke-width="2"/>
        <line x1="5" y1="-5" x2="5" y2="5" stroke="currentColor" stroke-width="4"/>
        <line x1="-20" y1="0" x2="-5" y2="0" stroke="currentColor" stroke-width="2"/>
        <line x1="5" y1="0" x2="20" y2="0" stroke="currentColor" stroke-width="2"/>
        <text x="-10" y="-15" font-size="10" fill="currentColor">+</text>
    </g>
  <text x="-2.1431318985078682e-15" y="35.0" text-anchor="middle" font-size="12" dominant-baseline="middle" transform="rotate(-90.0, -2.1431318985078682e-15, 35.0)">Vin</text>
  <text x="2.1431318985078682e-15" y="-35.0" text-anchor="middle" font-size="10" fill="gray" dominant-baseline="middle" transform="rotate(-90.0, 2.1431318985078682e-15, -35.0)">5V</text>
</g>
<g transform="translate(100, 220) rotate(90.0)">
  <g class="symbol"><rect x="-20" y="-8" width="40" height="16" fill="none" stroke="currentColor" stroke-width="2"/></g>
  <text x="-2.1431318985078682e-15" y="35.0" text-anchor="middle" font-size="12" dominant-baseline="middle" transform="rotate(-90.0, -2.1431318985078682e-15, 35.0)">R1</text>
  <text x="2.1431318985078682e-15" y="-35.0" text-anchor="middle" font-size="10" fill="gray" dominant-baseline="middle" transform="rotate(-90.0, 2.1431318985078682e-15, -35.0)">10k</text>
</g>
<g transform="translate(100, 340) rotate(90.0)">
  <g class="symbol"><rect x="-20" y="-8" width="40" height="16" fill="none" stroke="currentColor" stroke-width="2"/></g>
  <text x="-2.1431318985078682e-15" y="35.0" text-anchor="middle" font-size="12" dominant-baseline="middle" transform="rotate(-90.0, -2.1431318985078682e-15, 35.0)">R2</text>
  <text x="2.1431318985078682e-15" y="-35.0" text-anchor="middle" font-size="10" fill="gray" dominant-baseline="middle" transform="rotate(-90.0, 2.1431318985078682e-15, -35.0)">2.2k</text>
</g>
<g transform="translate(100, 520) rotate(0.0)">
  <g class="symbol">
        <line x1="-15" y1="0" x2="15" y2="0" stroke="currentColor" stroke-width="2"/>
        <line x1="0" y1="-10" x2="0" y2="0" stroke="currentColor" stroke-width="2"/>
    </g>
  <text x="-30.0" y="-15.0" text-anchor="middle" font-size="12" dominant-baseline="middle" transform="rotate(-0.0, -30.0, -15.0)">GND</text>
  <text x="30.0" y="0.0" text-anchor="middle" font-size="10" fill="gray" dominant-baseline="middle" transform="rotate(-0.0, 30.0, 0.0)"></text>
</g>
<path d="M 100.0 80.0 L 100.0 140.0 L 100.0 140.0 L 100.0 200.0" stroke="blue" stroke-width="1" fill="none"/>
<path d="M 100.0 240.0 L 100.0 280.0 L 100.0 280.0 L 100.0 320.0" stroke="blue" stroke-width="1" fill="none"/>
<path d="M 100.0 360.0 L 100.0 435.0 L 100 435.0 L 100 510" stroke="blue" stroke-width="1" fill="none"/>
</svg>