<svg xmlns="http://www.w3.org/2000/svg" width="550" height="600" viewBox="0 0 550 600">
<style> text { font-family: sans-serif; fill: black; } path, line, rect { stroke: black; } </style>
<rect width="100%" height="100%" fill="white"/>
<g transform="translate(100, 100) rotate(0.0)">
  <g class="symbol">
        <line x1="-5" y1="-10" x2="-5" y2="10" stroke="currentColor" stroke-width="2"/>
        <line x1="5" y1="-5" x2="5" y2="5" stroke="currentColor" stroke-width="4"/>
        <line x1="-20" y1="0" x2="-5" y2="0" stroke="currentColor" stroke-width="2"/>
        <line x1="5" y1="0" x2="20" y2="0" stroke="currentColor" stroke-width="2"/>
        <text x="-10" y="-15" font-size="10" fill="currentColor">+</text>
    </g>
  <text x="0.0" y="-30.0" text-anchor="middle" font-size="12" dominant-baseline="middle" transform="rotate(-0.0, 0.0, -30.0)">Vs</text>
  <text x="0.0" y="30.0" text-anchor="middle" font-size="10" fill="gray" dominant-baseline="middle" transform="rotate(-0.0, 0.0, 30.0)">10V</text>
</g>
<g transform="translate(250, 100) rotate(0.0)">
  <g class="symbol"><rect x="-20" y="-8" width="40" height="16" fill="none" stroke="currentColor" stroke-width="2"/></g>
  <text x="0.0" y="-30.0" text-anchor="middle" font-size="12" dominant-baseline="middle" transform="rotate(-0.0, 0.0, -30.0)">R1</text>
  <text x="0.0" y="30.0" text-anchor="middle" font-size="10" fill="gray" dominant-baseline="middle" transform="rotate(-0.0, 0.0, 30.0)">1k</text>
</g>
<g transform="translate(250, 220) rotate(0.0)">
  <g class="symbol"><rect x="-20" y="-8" width="40" height="16" fill="none" stroke="currentColor" stroke-width="2"/></g>
  <text x="0.0" y="-30.0" text-anchor="middle" font-size="12" dominant-baseline="middle" transform="rotate(-0.0, 0.0, -30.0)">R2</text>
  <text x="0.0" y="30.0" text-anchor="middle" font-size="10" fill="gray" dominant-baseline="middle" transform="rotate(-0.0, 0.0, 30.0)">1k</text>
</g>
<g transform="translate(250, 340) rotate(0.0)">
  <g class="symbol"><rect x="-20" y="-8" width="40" height="16" fill="none" stroke="currentColor" stroke-width="2"/></g>
  <text x="0.0" y="-30.0" text-anchor="middle" font-size="12" dominant-baseline="middle" transform="rotate(-0.0, 0.0, -30.0)">R3</text>
  <text x="0.0" y="30.0" text-anchor="middle" font-size="10" fill="gray" dominant-baseline="middle" transform="rotate(-0.0, 0.0, 30.0)">1k</text>
</g>
<g transform="translate(250, 460) rotate(0.0)">
  <g class="symbol"><rect x="-20" y="-8" width="40" height="16" fill="none" stroke="currentColor" stroke-width="2"/></g>
  <text x="0.0" y="-30.0" text-anchor="middle" font-size="12" dominant-baseline="middle" transform="rotate(-0.0, 0.0, -30.0)">R4</text>
  <text x="0.0" y="30.0" text-anchor="middle" font-size="10" fill="gray" dominant-baseline="middle" transform="rotate(-0.0, 0.0, 30.0)">1k</text>
</g>
<g transform="translate(250, 640) rotate(0.0)">
  <g class="symbol">
        <line x1="-15" y1="0" x2="15" y2="0" stroke="currentColor" stroke-width="2"/>
        <line x1="0" y1="-10" x2="0" y2="0" stroke="currentColor" stroke-width="2"/>
    </g>
  <text x="-30.0" y="-15.0" text-anchor="middle" font-size="12" dominant-baseline="middle" transform="rotate(-0.0, -30.0, -15.0)">GND</text>
  <text x="30.0" y="0.0" text-anchor="middle" font-size="10" fill="gray" dominant-baseline="middle" transform="rotate(-0.0, 30.0, 0.0)"></text>
</g>
<g transform="translate(400, 100) rotate(0.0)">
  <g class="symbol"><rect x="-20" y="-8" width="40" height="16" fill="none" stroke="currentColor" stroke-width="2"/></g>
  <text x="0.0" y="-30.0" text-anchor="middle" font-size="12" dominant-baseline="middle" transform="rotate(-0.0, 0.0, -30.0)">Rg</text>
  <text x="0.0" y="30.0" text-anchor="middle" font-size="10" fill="gray" dominant-baseline="middle" transform="rotate(-0.0, 0.0, 30.0)">50R</text>
</g>
<path d="M 80 100 L 230 100 L 230 100" stroke="blue" stroke-width="1" fill="none"/>
<path d="M 230 100 L 230 100 L 230 340" stroke="blue" stroke-width="1" fill="none"/>
<path d="M 270 100 L 230 100 L 230 220" stroke="blue" stroke-width="1" fill="none"/>
<path d="M 230 220 L 380 220 L 380 100" stroke="blue" stroke-width="1" fill="none"/>
<path d="M 270 460 L 270 460 L 270 220" stroke="blue" stroke-width="1" fill="none"/>
<path d="M 270 220 L 120 220 L 120 100" stroke="blue" stroke-width="1" fill="none"/>
<path d="M 120 100 L 250 100 L 250 630" stroke="blue" stroke-width="1" fill="none"/>
<path d="M 420 100 L 270 100 L 270 340" stroke="blue" stroke-width="1" fill="none"/>
<path d="M 270 340 L 230 340 L 230 460" stroke="blue" stroke-width="1" fill="none"/>
</svg>